<svg data-v-423bf9ae="" xmlns="http://www.w3.org/2000/svg" viewBox="0 0 672 90" class="iconLeft"><!----><!----><!----><g data-v-423bf9ae="" id="58fd1f29-89c4-4bed-9974-79a4f96d28f5" fill="white" transform="matrix(4.710211753845215,0,0,4.710211753845215,154.70761108398438,-1.1177568435668945)"><path d="M7.73 3.70L7.41 3.70L1.34 3.70L0.28 3.70L0.28 4.52C0.28 4.76 0.39 4.90 0.63 4.96C0.64 4.96 0.67 4.96 0.71 4.97C0.76 4.97 0.83 5.00 0.92 5.01C1.02 5.03 1.18 5.05 1.34 5.08L1.34 12.43C1.18 12.46 1.02 12.49 0.92 12.50C0.83 12.52 0.76 12.54 0.71 12.54C0.67 12.54 0.64 12.56 0.63 12.56C0.39 12.61 0.28 12.75 0.28 12.99L0.28 13.82L1.34 13.82L3.23 13.82L4.30 13.82L4.30 12.99C4.30 12.75 4.19 12.61 3.95 12.56C3.93 12.56 3.91 12.54 3.86 12.54C3.82 12.54 3.75 12.52 3.65 12.50C3.56 12.49 3.40 12.46 3.23 12.43L3.23 9.69L6.78 9.69L6.78 8.19L3.23 8.19L3.23 5.19L6.85 5.19C6.89 5.68 6.93 5.98 6.94 6.09C6.99 6.26 7.08 6.36 7.27 6.36L7.85 6.36L8.02 6.36L8.08 6.36L8.08 5.00L8.08 4.68L8.08 3.70ZM16.09 12.56C15.97 12.54 15.99 12.54 15.39 12.43L15.39 6.64L13.65 6.64L13.65 6.64L12.60 6.64L12.60 7.46C12.60 7.70 12.71 7.84 12.95 7.90C13.06 7.91 13.06 7.92 13.65 8.02L13.65 11.83C13.41 12.07 13.17 12.25 12.91 12.38C12.64 12.50 12.36 12.57 12.07 12.57C11.66 12.57 11.35 12.46 11.16 12.22C10.96 11.98 10.85 11.63 10.85 11.20L10.85 6.64L9.13 6.64L9.13 6.64L8.06 6.64L8.06 7.46C8.06 7.70 8.18 7.84 8.41 7.90C8.53 7.91 8.53 7.91 9.13 8.02L9.13 11.20C9.13 11.61 9.18 11.97 9.28 12.31C9.39 12.64 9.53 12.92 9.74 13.16C9.95 13.40 10.21 13.61 10.50 13.73C10.81 13.86 11.16 13.93 11.55 13.93C11.79 13.93 12.00 13.90 12.21 13.86C12.42 13.80 12.61 13.73 12.80 13.65C12.98 13.57 13.15 13.47 13.30 13.34C13.45 13.22 13.61 13.08 13.76 12.92L13.89 13.50C13.96 13.71 14.10 13.82 14.32 13.82L15.39 13.82L16.44 13.82L16.44 12.99C16.44 12.75 16.32 12.61 16.09 12.56ZM20.47 12.56C20.45 12.56 20.43 12.56 20.38 12.54C20.34 12.53 20.27 12.52 20.17 12.50C20.08 12.49 19.92 12.46 19.75 12.43L19.75 3.42L18.03 3.42L16.97 3.42L16.97 4.24C16.97 4.48 17.08 4.62 17.32 4.68C17.33 4.68 17.36 4.69 17.40 4.69C17.44 4.69 17.51 4.72 17.61 4.73C17.71 4.75 17.86 4.77 18.03 4.80L18.03 12.43C17.86 12.46 17.71 12.49 17.61 12.50C17.51 12.52 17.44 12.53 17.40 12.54C17.36 12.56 17.33 12.56 17.32 12.56C17.08 12.61 16.97 12.75 16.97 12.99L16.97 13.82L18.03 13.82L19.75 13.82L20.82 13.82L20.82 12.99C20.82 12.75 20.71 12.61 20.47 12.56ZM24.82 12.56C24.81 12.56 24.78 12.56 24.74 12.54C24.70 12.53 24.63 12.52 24.53 12.50C24.43 12.49 24.28 12.46 24.11 12.43L24.11 3.42L22.39 3.42L21.32 3.42L21.32 4.24C21.32 4.48 21.43 4.62 21.67 4.68C21.69 4.68 21.71 4.69 21.76 4.69C21.80 4.69 21.87 4.72 21.97 4.73C22.06 4.75 22.22 4.77 22.39 4.80L22.39 12.43C22.22 12.46 22.06 12.49 21.97 12.50C21.87 12.52 21.80 12.53 21.76 12.54C21.71 12.56 21.69 12.56 21.67 12.56C21.43 12.61 21.32 12.75 21.32 12.99L21.32 13.82L22.39 13.82L24.11 13.82L25.17 13.82L25.17 12.99C25.17 12.75 25.06 12.61 24.82 12.56ZM30.44 6.51C30.00 6.51 29.62 6.64 29.27 6.89C28.92 7.14 28.63 7.49 28.38 7.94L28.27 7.07C28.24 6.92 28.20 6.80 28.13 6.73C28.06 6.66 27.94 6.64 27.76 6.64L26.74 6.64L26.74 6.64L25.69 6.64L25.69 7.46C25.69 7.70 25.80 7.84 26.04 7.90C26.15 7.91 26.14 7.91 26.74 8.02L26.74 12.43C26.14 12.54 26.15 12.54 26.04 12.56C25.80 12.61 25.69 12.75 25.69 12.99L25.69 13.82L26.74 13.82L28.48 13.82L28.48 13.82L29.53 13.82L29.53 12.99C29.53 12.75 29.41 12.61 29.18 12.56C29.06 12.54 29.08 12.54 28.48 12.43L28.48 9.35C28.66 8.97 28.87 8.67 29.12 8.47C29.37 8.27 29.68 8.18 30.04 8.18C30.24 8.18 30.41 8.20 30.53 8.23C30.66 8.26 30.74 8.27 30.81 8.27C30.90 8.27 30.97 8.25 31.01 8.22C31.05 8.19 31.08 8.13 31.09 8.05L31.32 6.75C31.08 6.58 30.79 6.51 30.44 6.51ZM35.27 12.56C35.25 12.56 35.22 12.54 35.18 12.54C35.14 12.54 35.07 12.52 34.97 12.50C34.87 12.49 34.72 12.46 34.55 12.43L34.55 6.64L32.83 6.64L31.77 6.64L31.77 7.46C31.77 7.70 31.88 7.84 32.12 7.90C32.13 7.90 32.16 7.91 32.20 7.91C32.24 7.91 32.31 7.94 32.41 7.95C32.51 7.97 32.66 7.99 32.83 8.02L32.83 12.43C32.66 12.46 32.51 12.49 32.41 12.50C32.31 12.52 32.24 12.53 32.20 12.54C32.16 12.54 32.13 12.56 32.12 12.56C31.88 12.61 31.77 12.75 31.77 12.99L31.77 13.82L32.83 13.82L34.55 13.82L35.62 13.82L35.62 12.99C35.62 12.75 35.50 12.61 35.27 12.56ZM34.82 4.54C34.82 4.38 34.78 4.24 34.72 4.10C34.66 3.96 34.58 3.85 34.48 3.75C34.38 3.65 34.27 3.58 34.13 3.53C33.99 3.47 33.85 3.43 33.70 3.43C33.54 3.43 33.40 3.47 33.26 3.53C33.12 3.58 33.03 3.65 32.93 3.75C32.83 3.85 32.75 3.96 32.69 4.10C32.63 4.24 32.61 4.38 32.61 4.54C32.61 4.69 32.63 4.83 32.69 4.96C32.75 5.08 32.83 5.21 32.93 5.31C33.03 5.40 33.12 5.49 33.26 5.54C33.40 5.60 33.54 5.63 33.70 5.63C33.85 5.63 33.99 5.60 34.13 5.54C34.27 5.49 34.38 5.40 34.48 5.31C34.58 5.21 34.66 5.08 34.72 4.96C34.78 4.83 34.82 4.69 34.82 4.54ZM43.65 12.96C43.65 12.73 43.54 12.59 43.30 12.53C43.27 12.53 43.25 12.52 43.22 12.52C43.19 12.52 43.12 12.49 43.04 12.47C42.95 12.46 42.83 12.45 42.67 12.42L42.67 3.42L40.94 3.42L39.89 3.42L39.89 4.24C39.89 4.48 40.00 4.62 40.24 4.68C40.25 4.68 40.28 4.69 40.32 4.69C40.36 4.69 40.43 4.72 40.53 4.73C40.63 4.75 40.75 4.77 40.94 4.80L40.94 7.20C40.71 6.97 40.46 6.82 40.18 6.69C39.90 6.57 39.55 6.50 39.14 6.50C38.67 6.50 38.25 6.59 37.87 6.79C37.49 6.99 37.17 7.24 36.90 7.57C36.64 7.91 36.41 8.30 36.27 8.76C36.13 9.23 36.06 9.72 36.06 10.25C36.06 10.84 36.13 11.35 36.26 11.82C36.39 12.26 36.57 12.66 36.81 12.96C37.04 13.27 37.32 13.51 37.65 13.68C37.97 13.85 38.32 13.92 38.71 13.92C39.21 13.92 39.66 13.82 40.04 13.61C40.42 13.40 40.74 13.15 41.03 12.81L41.17 13.47C41.20 13.58 41.24 13.65 41.33 13.71C41.41 13.76 41.50 13.79 41.61 13.79L42.67 13.79L43.65 13.79ZM40.95 11.69C40.73 11.97 40.49 12.18 40.24 12.33C39.98 12.49 39.68 12.56 39.31 12.56C39.09 12.56 38.88 12.52 38.70 12.43C38.51 12.35 38.37 12.21 38.25 12.03C38.12 11.84 38.02 11.62 37.95 11.33C37.88 11.03 37.86 10.67 37.86 10.25C37.86 9.83 37.88 9.48 37.97 9.17C38.05 8.86 38.16 8.61 38.30 8.41C38.46 8.22 38.64 8.06 38.85 7.97C39.06 7.87 39.28 7.81 39.55 7.81C39.82 7.81 40.07 7.87 40.31 7.97C40.53 8.06 40.75 8.23 40.95 8.47ZM47.54 6.52C47.01 6.52 46.51 6.62 46.09 6.80C45.67 6.99 45.30 7.24 45.01 7.56C44.72 7.88 44.48 8.26 44.32 8.69C44.17 9.13 44.09 9.58 44.09 10.07C44.09 10.70 44.17 11.26 44.35 11.73C44.53 12.21 44.79 12.61 45.11 12.94C45.43 13.26 45.79 13.51 46.23 13.68C46.66 13.85 47.11 13.92 47.61 13.92C47.87 13.92 48.13 13.90 48.40 13.86C48.66 13.82 48.93 13.76 49.20 13.68C49.45 13.59 49.70 13.47 49.94 13.31C50.18 13.16 50.39 12.96 50.58 12.74L50.08 12.11C50.04 12.05 50.01 12.03 49.95 12.00C49.90 11.97 49.83 11.96 49.76 11.96C49.64 11.96 49.55 11.98 49.43 12.05C49.32 12.12 49.18 12.18 49.03 12.26C48.87 12.35 48.71 12.42 48.50 12.49C48.30 12.56 48.06 12.59 47.78 12.59C47.21 12.59 46.76 12.42 46.41 12.07C46.06 11.72 45.86 11.19 45.81 10.44L50.25 10.44C50.33 10.44 50.39 10.44 50.44 10.42C50.50 10.39 50.54 10.36 50.57 10.30C50.60 10.26 50.61 10.19 50.62 10.11C50.64 10.02 50.65 9.90 50.65 9.77C50.65 9.25 50.57 8.81 50.41 8.40C50.26 7.99 50.05 7.66 49.77 7.38C49.49 7.10 49.17 6.87 48.79 6.73C48.41 6.59 47.99 6.52 47.54 6.52ZM47.57 7.76C47.82 7.76 48.05 7.81 48.24 7.90C48.44 7.98 48.59 8.09 48.72 8.25C48.85 8.40 48.94 8.57 49 8.76C49.06 8.96 49.10 9.17 49.10 9.39L45.85 9.39C45.93 8.88 46.12 8.47 46.40 8.19C46.68 7.91 47.07 7.76 47.57 7.76ZM57.29 13.93C57.64 13.93 57.97 13.87 58.30 13.76C58.62 13.65 58.91 13.50 59.16 13.29L58.65 12.45C58.60 12.39 58.58 12.36 58.55 12.33C58.52 12.31 58.46 12.31 58.41 12.31C58.37 12.31 58.34 12.31 58.30 12.33C58.25 12.36 58.20 12.39 58.14 12.42C58.09 12.45 58.03 12.47 57.96 12.50C57.89 12.53 57.81 12.53 57.69 12.53C57.51 12.53 57.36 12.47 57.25 12.35C57.13 12.22 57.08 12.05 57.08 11.83L57.08 7.94L58.97 7.94L58.97 6.71L57.08 6.71L57.08 4.44L56.18 4.44C56.08 4.44 55.99 4.47 55.92 4.52C55.85 4.58 55.80 4.63 55.79 4.73L55.43 6.69L54.26 6.87L54.26 7.57C54.26 7.70 54.31 7.78 54.38 7.84C54.45 7.90 54.52 7.94 54.61 7.94L55.34 7.94L55.34 11.94C55.34 12.56 55.51 13.05 55.85 13.40C56.18 13.75 56.67 13.93 57.29 13.93ZM63.25 6.52C62.72 6.52 62.22 6.62 61.80 6.80C61.38 6.99 61.01 7.24 60.72 7.56C60.42 7.88 60.19 8.26 60.03 8.69C59.88 9.13 59.79 9.58 59.79 10.07C59.79 10.70 59.88 11.26 60.06 11.73C60.24 12.21 60.49 12.61 60.82 12.94C61.14 13.26 61.50 13.51 61.94 13.68C62.37 13.85 62.82 13.92 63.32 13.92C63.57 13.92 63.84 13.90 64.11 13.86C64.37 13.82 64.64 13.76 64.90 13.68C65.16 13.59 65.41 13.47 65.65 13.31C65.88 13.16 66.09 12.96 66.29 12.74L65.79 12.11C65.74 12.05 65.72 12.03 65.66 12.00C65.60 11.97 65.53 11.96 65.46 11.96C65.35 11.96 65.25 11.98 65.14 12.05C65.03 12.12 64.89 12.18 64.74 12.26C64.58 12.35 64.41 12.42 64.20 12.49C64.01 12.56 63.77 12.59 63.49 12.59C62.92 12.59 62.47 12.42 62.12 12.07C61.77 11.72 61.57 11.19 61.52 10.44L65.95 10.44C66.04 10.44 66.09 10.44 66.15 10.42C66.21 10.39 66.25 10.36 66.28 10.30C66.30 10.26 66.32 10.19 66.33 10.11C66.35 10.02 66.36 9.90 66.36 9.77C66.36 9.25 66.28 8.81 66.12 8.40C65.97 7.99 65.76 7.66 65.48 7.38C65.20 7.10 64.88 6.87 64.50 6.73C64.12 6.59 63.70 6.52 63.25 6.52ZM63.28 7.76C63.53 7.76 63.76 7.81 63.95 7.90C64.15 7.98 64.30 8.09 64.43 8.25C64.55 8.40 64.65 8.57 64.71 8.76C64.76 8.96 64.81 9.17 64.81 9.39L61.56 9.39C61.64 8.88 61.82 8.47 62.10 8.19C62.38 7.91 62.78 7.76 63.28 7.76ZM71.86 10.79C71.76 10.58 71.64 10.42 71.47 10.28C71.30 10.12 71.12 10.01 70.91 9.91C70.70 9.81 70.48 9.72 70.25 9.65C70.03 9.58 69.82 9.51 69.61 9.45C69.40 9.39 69.22 9.31 69.05 9.23C68.88 9.14 68.75 9.07 68.66 8.96C68.56 8.85 68.50 8.72 68.50 8.57C68.50 8.33 68.60 8.13 68.80 7.99C68.99 7.85 69.26 7.78 69.59 7.78C69.92 7.78 70.25 7.83 70.43 7.88C70.49 8.43 70.52 8.60 70.53 8.67C70.57 8.83 70.67 8.93 70.85 8.93L71.43 8.93L71.60 8.93L71.65 8.93L71.65 6.90L71.67 6.90C70.66 6.59 70.27 6.52 69.57 6.52C69.12 6.52 68.74 6.59 68.40 6.71C68.07 6.82 67.77 6.99 67.55 7.18C67.33 7.38 67.14 7.62 67.03 7.88C66.92 8.15 66.86 8.43 66.86 8.72C66.86 9.04 66.92 9.31 67.02 9.53C67.12 9.76 67.24 9.94 67.41 10.09C67.58 10.25 67.77 10.37 67.98 10.47C68.19 10.57 68.40 10.67 68.63 10.74C68.85 10.81 69.08 10.88 69.29 10.95C69.50 11.00 69.68 11.07 69.85 11.16C70.01 11.24 70.15 11.33 70.25 11.44C70.35 11.55 70.39 11.68 70.39 11.84C70.39 11.96 70.38 12.07 70.34 12.18C70.29 12.29 70.22 12.36 70.13 12.45C70.03 12.53 69.92 12.59 69.76 12.64C69.62 12.68 69.44 12.71 69.23 12.71C68.92 12.71 68.47 12.71 68.10 12.60C68.04 12.04 68.01 11.84 68.00 11.77C67.96 11.61 67.86 11.51 67.68 11.51L67.10 11.51L66.93 11.51L66.86 11.51L66.86 12.84L66.86 13.54L66.86 13.54C67.38 13.73 68.25 13.93 69.15 13.93C69.61 13.93 70.03 13.87 70.38 13.75C70.74 13.64 71.04 13.47 71.27 13.26C71.51 13.05 71.69 12.80 71.82 12.50C71.95 12.21 72.02 11.89 72.02 11.54C72.02 11.24 71.96 11.00 71.86 10.79ZM75.39 13.93C75.74 13.93 76.08 13.87 76.40 13.76C76.72 13.65 77.01 13.50 77.27 13.29L76.75 12.45C76.71 12.39 76.68 12.36 76.65 12.33C76.62 12.31 76.57 12.31 76.51 12.31C76.47 12.31 76.44 12.31 76.40 12.33C76.36 12.36 76.30 12.39 76.24 12.42C76.19 12.45 76.13 12.47 76.06 12.50C75.99 12.53 75.91 12.53 75.80 12.53C75.61 12.53 75.46 12.47 75.35 12.35C75.24 12.22 75.18 12.05 75.18 11.83L75.18 7.94L77.07 7.94L77.07 6.71L75.18 6.71L75.18 4.44L74.28 4.44C74.19 4.44 74.09 4.47 74.02 4.52C73.95 4.58 73.91 4.63 73.89 4.73L73.53 6.69L72.37 6.87L72.37 7.57C72.37 7.70 72.41 7.78 72.48 7.84C72.55 7.90 72.62 7.94 72.72 7.94L73.44 7.94L73.44 11.94C73.44 12.56 73.61 13.05 73.95 13.40C74.28 13.75 74.77 13.93 75.39 13.93ZM88.33 8.61C88.20 8.16 88.02 7.77 87.78 7.46C87.54 7.15 87.26 6.92 86.94 6.75C86.62 6.58 86.25 6.51 85.86 6.51C85.36 6.51 84.92 6.61 84.55 6.82C84.17 7.03 83.85 7.28 83.55 7.62L83.41 6.96C83.38 6.85 83.34 6.78 83.26 6.72C83.17 6.66 83.08 6.64 82.96 6.64L81.91 6.64L80.85 6.64L80.85 7.46C80.85 7.70 80.96 7.84 81.20 7.90C81.21 7.90 81.24 7.91 81.28 7.91C81.33 7.91 81.40 7.94 81.49 7.95C81.59 7.97 81.75 7.99 81.91 8.02L81.91 14.77C81.75 14.80 81.59 14.84 81.49 14.85C81.40 14.87 81.33 14.88 81.28 14.88C81.24 14.88 81.21 14.90 81.20 14.90C80.96 14.95 80.85 15.11 80.85 15.34L80.85 16.16L81.91 16.16L83.64 16.16L84.70 16.16L84.70 15.34C84.70 15.11 84.59 14.95 84.35 14.90C84.34 14.90 84.31 14.90 84.27 14.88C84.22 14.87 84.15 14.87 84.06 14.85C83.96 14.84 83.82 14.80 83.64 14.77L83.64 13.22C83.86 13.44 84.13 13.61 84.41 13.73C84.69 13.86 85.02 13.92 85.43 13.92C85.90 13.92 86.34 13.83 86.72 13.64C87.09 13.44 87.42 13.19 87.68 12.85C87.95 12.52 88.16 12.12 88.30 11.66C88.44 11.20 88.52 10.70 88.52 10.16C88.52 9.58 88.45 9.07 88.33 8.61ZM86.62 11.26C86.53 11.56 86.41 11.82 86.27 12.01C86.11 12.21 85.95 12.36 85.74 12.46C85.53 12.56 85.29 12.60 85.02 12.60C84.76 12.60 84.50 12.56 84.28 12.46C84.06 12.36 83.83 12.19 83.64 11.96L83.64 8.74C83.86 8.46 84.10 8.25 84.35 8.09C84.60 7.94 84.91 7.87 85.27 7.87C85.50 7.87 85.69 7.91 85.88 7.99C86.06 8.08 86.21 8.22 86.34 8.40C86.46 8.58 86.56 8.81 86.63 9.10C86.70 9.39 86.73 9.76 86.73 10.18C86.73 10.60 86.70 10.95 86.62 11.26ZM93.77 6.51C93.34 6.51 92.96 6.64 92.61 6.89C92.26 7.14 91.97 7.49 91.71 7.94L91.60 7.07C91.57 6.92 91.53 6.80 91.46 6.73C91.39 6.66 91.28 6.64 91.10 6.64L90.08 6.64L90.08 6.64L89.03 6.64L89.03 7.46C89.03 7.70 89.14 7.84 89.38 7.90C89.49 7.91 89.47 7.91 90.08 8.02L90.08 12.43C89.47 12.54 89.49 12.54 89.38 12.56C89.14 12.61 89.03 12.75 89.03 12.99L89.03 13.82L90.08 13.82L91.81 13.82L91.81 13.82L92.86 13.82L92.86 12.99C92.86 12.75 92.75 12.61 92.51 12.56C92.40 12.54 92.41 12.54 91.81 12.43L91.81 9.35C91.99 8.97 92.20 8.67 92.46 8.47C92.71 8.27 93.02 8.18 93.38 8.18C93.58 8.18 93.74 8.20 93.87 8.23C94.00 8.26 94.08 8.27 94.15 8.27C94.23 8.27 94.30 8.25 94.35 8.22C94.39 8.19 94.42 8.13 94.43 8.05L94.65 6.75C94.42 6.58 94.12 6.51 93.77 6.51ZM98.52 6.52C97.99 6.52 97.48 6.62 97.06 6.80C96.64 6.99 96.28 7.24 95.98 7.56C95.69 7.88 95.45 8.26 95.30 8.69C95.14 9.13 95.06 9.58 95.06 10.07C95.06 10.70 95.14 11.26 95.33 11.73C95.51 12.21 95.76 12.61 96.08 12.94C96.40 13.26 96.77 13.51 97.20 13.68C97.64 13.85 98.08 13.92 98.59 13.92C98.84 13.92 99.11 13.90 99.37 13.86C99.64 13.82 99.90 13.76 100.17 13.68C100.42 13.59 100.67 13.47 100.91 13.31C101.15 13.16 101.36 12.96 101.56 12.74L101.05 12.11C101.01 12.05 100.98 12.03 100.93 12.00C100.87 11.97 100.80 11.96 100.73 11.96C100.62 11.96 100.52 11.98 100.41 12.05C100.30 12.12 100.16 12.18 100.00 12.26C99.85 12.35 99.68 12.42 99.47 12.49C99.27 12.56 99.04 12.59 98.76 12.59C98.18 12.59 97.73 12.42 97.38 12.07C97.03 11.72 96.84 11.19 96.78 10.44L101.22 10.44C101.30 10.44 101.36 10.44 101.42 10.42C101.47 10.39 101.51 10.36 101.54 10.30C101.57 10.26 101.58 10.19 101.60 10.11C101.61 10.02 101.63 9.90 101.63 9.77C101.63 9.25 101.54 8.81 101.39 8.40C101.23 7.99 101.02 7.66 100.74 7.38C100.46 7.10 100.14 6.87 99.76 6.73C99.39 6.59 98.97 6.52 98.52 6.52ZM98.55 7.76C98.80 7.76 99.02 7.81 99.22 7.90C99.41 7.98 99.57 8.09 99.69 8.25C99.82 8.40 99.92 8.57 99.97 8.76C100.03 8.96 100.07 9.17 100.07 9.39L96.82 9.39C96.91 8.88 97.09 8.47 97.37 8.19C97.65 7.91 98.04 7.76 98.55 7.76ZM109.49 8.61C109.37 8.16 109.19 7.77 108.95 7.46C108.71 7.15 108.43 6.92 108.11 6.75C107.79 6.58 107.42 6.51 107.03 6.51C106.53 6.51 106.09 6.61 105.71 6.82C105.34 7.03 105.01 7.28 104.72 7.62L104.58 6.96C104.55 6.85 104.51 6.78 104.43 6.72C104.34 6.66 104.24 6.64 104.13 6.64L103.08 6.64L102.02 6.64L102.02 7.46C102.02 7.70 102.13 7.84 102.37 7.90C102.38 7.90 102.41 7.91 102.45 7.91C102.49 7.91 102.56 7.94 102.66 7.95C102.76 7.97 102.91 7.99 103.08 8.02L103.08 14.77C102.91 14.80 102.76 14.84 102.66 14.85C102.56 14.87 102.49 14.88 102.45 14.88C102.41 14.88 102.38 14.90 102.37 14.90C102.13 14.95 102.02 15.11 102.02 15.34L102.02 16.16L103.08 16.16L104.80 16.16L105.87 16.16L105.87 15.34C105.87 15.11 105.76 14.95 105.52 14.90C105.50 14.90 105.48 14.90 105.43 14.88C105.39 14.87 105.32 14.87 105.22 14.85C105.13 14.84 104.99 14.80 104.80 14.77L104.80 13.22C105.03 13.44 105.29 13.61 105.57 13.73C105.85 13.86 106.19 13.92 106.60 13.92C107.07 13.92 107.51 13.83 107.88 13.64C108.26 13.44 108.58 13.19 108.85 12.85C109.12 12.52 109.33 12.12 109.47 11.66C109.61 11.20 109.69 10.70 109.69 10.16C109.69 9.58 109.62 9.07 109.49 8.61ZM107.79 11.26C107.70 11.56 107.58 11.82 107.44 12.01C107.28 12.21 107.11 12.36 106.90 12.46C106.69 12.56 106.46 12.60 106.19 12.60C105.92 12.60 105.67 12.56 105.45 12.46C105.22 12.36 105 12.19 104.80 11.96L104.80 8.74C105.03 8.46 105.27 8.25 105.52 8.09C105.77 7.94 106.08 7.87 106.44 7.87C106.67 7.87 106.86 7.91 107.04 7.99C107.23 8.08 107.38 8.22 107.51 8.40C107.63 8.58 107.73 8.81 107.80 9.10C107.87 9.39 107.90 9.76 107.90 10.18C107.90 10.60 107.87 10.95 107.79 11.26Z"></path></g><!----><g data-v-423bf9ae="" id="c0bdf214-befa-4238-8612-69ea46ad7c6d" transform="matrix(1.3909683227539062,0,0,1.3909683227539062,-1.4468536376953125,-25.388689041137695)" stroke="none" fill="white"><path d="M14.6 83.6H3.8l3.6-13.2V47.2l3.6 1.6v21.4zM50 62L23.5 50.3 11 44.8l-3.6-1.6-6.3-2.7 6.2-2.8L50 18.9l48.9 21.6-22.4 9.8z"></path><path d="M82.1 66.4L50 79.1 17.9 66.4c0-5.1 1.2-9.5 3.3-13L50 66l28.7-12.6c2.2 3.5 3.4 7.8 3.4 13z"></path></g><!----></svg>